# xmcd
#
# Track frame offsets:
#	150
#	17986
#	23453
#	38073
#	52689
#	65735
#	85322
#	109070
#	127400
#	142985
#	154167
#
# Disc length: 2233 seconds
#
# Revision: 1
# Processed by: cddbd v1.5.1PL2 Copyright (c) Steve Scherf et al.
# Submitted via: audiograbber 1.83.01
#
DISCID=8e08b70b
DTITLE=Gail Anderson - for the soul
DYEAR=2006
DGENRE=Gospel
TTITLE0=All rise
TTITLE1=This little Light of Mine
TTITLE2=Lean on me
TTITLE3=Who would imagine a King
TTITLE4=Hallowed by the name
TTITLE5=God has another plan
TTITLE6=Song for the unborn Child
TTITLE7=Each one, Reach one
TTITLE8=Oh happy Day
TTITLE9=Silent night - Stille Nacht
TTITLE10=The peace of the Lord
EXTD=
EXTT0=
EXTT1=
EXTT2=
EXTT3=
EXTT4=
EXTT5=
EXTT6=
EXTT7=
EXTT8=
EXTT9=
EXTT10=
PLAYORDER=
